<svg xmlns="http://www.w3.org/2000/svg" viewBox="0 0 592.44 660.75"><title>Siscoin_Icon_3</title><g id="Capa_1" data-name="Capa 1"><path d="M577.44,262.72V457.86a60.4,60.4,0,0,1-30.21,52.31L326.43,637.65a60.39,60.39,0,0,1-60.41,0L45.21,510.17A60.41,60.41,0,0,1,15,457.85v-255a60.42,60.42,0,0,1,30.22-52.32L266,23.09a60.44,60.44,0,0,1,60.41,0L547.24,150.58a60.38,60.38,0,0,1,30.19,52.31v59.83Z" style="fill:#4949fc;stroke:#4949fc;stroke-linecap:round;stroke-miterlimit:10;stroke-width:30px"/><path d="M154,392.76l86.84-15.63Q251.76,414,297.08,414q35.28,0,35.28-18.75a17.43,17.43,0,0,0-8.15-15.3q-8.15-5.46-29.14-9.7-80.16-15.36-102.92-40.15t-22.77-58.29q0-43.09,32.71-71.68t94.1-28.59q93.1,0,123,74.79l-77.47,23.44q-12.06-30.57-48.9-30.58-30.58,0-30.58,19a15,15,0,0,0,6.92,13.17Q276.1,276,296,280.22q54.7,11.58,77.71,20.47t38.39,30.46q15.4,21.56,15.4,50.83,0,46.25-37.51,74.95T291.5,485.64Q180.09,485.64,154,392.76Z" style="fill:#eef"/><line x1="290.61" y1="536.39" x2="290.56" y2="645.62" style="fill:none;stroke:#4949fc;stroke-linecap:round;stroke-miterlimit:10;stroke-width:30px"/></g></svg>