<svg xmlns="http://www.w3.org/2000/svg" viewBox="0 0 902.47 293.71"><title>Mesa de trabajo 1 copia 18</title><g id="Capa_1" data-name="Capa 1"><path d="M0,176.77l40.36-7.26q5.09,17.12,26.14,17.12,16.4,0,16.4-8.71a8.09,8.09,0,0,0-3.79-7.11q-3.8-2.55-13.54-4.51-37.26-7.14-47.83-18.66A38.76,38.76,0,0,1,7.16,120.55q0-20,15.2-33.31T66.09,74q43.27,0,57.17,34.76l-36,10.89q-5.61-14.22-22.72-14.22-14.22,0-14.22,8.82a7,7,0,0,0,3.22,6.12q3.21,2.17,12.45,4.15,25.42,5.37,36.11,9.51a38.92,38.92,0,0,1,17.84,14.15q7.16,10,7.15,23.62,0,21.5-17.43,34.84T63.91,219.93Q12.13,219.93,0,176.77Z" style="fill:#eef"/><path d="M184,76.14V217.76H140.5V76.14Z" style="fill:#eef"/><path d="M190.85,176.78l40.36-7.26q5.08,17.11,26.15,17.12,16.39,0,16.39-8.71a8.07,8.07,0,0,0-3.79-7.11q-3.78-2.55-13.54-4.51-37.25-7.14-47.83-18.66A38.75,38.75,0,0,1,198,120.56q0-20,15.2-33.31T257,74q43.26,0,57.16,34.76l-36,10.89q-5.6-14.22-22.72-14.22-14.22,0-14.21,8.82a7,7,0,0,0,3.21,6.12q3.23,2.19,12.45,4.15Q282.27,129.86,293,134a39,39,0,0,1,17.85,14.15q7.14,10,7.15,23.62,0,21.49-17.43,34.84t-45.76,13.33Q203,219.94,190.85,176.78Z" style="fill:#eef"/><path d="M409.28,163.72,449,166.11q-2.79,26-19.24,39.94T389.35,220q-28.83,0-46.58-19.09T325,148.15q0-33.3,16.81-53.74T388.74,74Q416.85,74,432,89.54T449,130.83L408.45,133q0-14.22-5.45-20.54t-12.81-6.33q-20.54,0-20.54,41.29,0,23.13,5.34,31.43a16.87,16.87,0,0,0,15,8.31Q407.2,187.17,409.28,163.72Z" style="fill:#eef"/><path d="M522.91,220Q493,220,474.2,200.14t-18.83-53q0-31.74,18-52.44t50-20.7q29.58,0,48.19,19.51t18.62,52.08q0,33.72-18.78,54.06T522.91,220Zm-.21-32.16q11,0,15.83-9.6t4.82-35.12q0-36.93-19.81-36.94-21.37,0-21.38,42.13Q502.16,187.8,522.7,187.8Z" style="fill:#eef"/><path d="M648.8,76.17V217.79H605.32V76.17Z" style="fill:#eef"/><path d="M791.37,217.8H756l-38.78-62.57A238.31,238.31,0,0,1,702.15,126q3.42,13.69,3.42,23.24v68.58H670.29V76.17h41.09l33,51.88a199.38,199.38,0,0,1,14.93,27.18A206.3,206.3,0,0,1,756,118.09V76.17h35.38Z" style="fill:#eef"/><path d="M891.3,101.25V201.77a26,26,0,0,1-13,22.49l-94.93,54.81a26,26,0,0,1-26,0l-56.76-32.78" style="fill:none;stroke:#4949fc;stroke-linecap:round;stroke-miterlimit:10;stroke-width:22.33750820159912px"/><path d="M706.27,44.38l51.14-29.53a26,26,0,0,1,26,0l94.94,54.81a26,26,0,0,1,13,22.49v9.1" style="fill:none;stroke:#4949fc;stroke-linecap:round;stroke-miterlimit:10;stroke-width:22.33750820159912px"/><line x1="879.05" y1="78.04" x2="822.08" y2="110.93" style="fill:none;stroke:#4949fc;stroke-linecap:round;stroke-miterlimit:10;stroke-width:22.33750820159912px"/><line x1="767.98" y1="247.77" x2="767.96" y2="282.49" style="fill:none;stroke:#4949fc;stroke-linecap:round;stroke-miterlimit:10;stroke-width:22.33750820159912px"/></g></svg>