<svg xmlns="http://www.w3.org/2000/svg" viewBox="0 0 908.76 645.33"><title>Siscoin_Logo_Compact</title><g id="Capa_1" data-name="Capa 1"><path d="M0,355.59l46.35-8.33q5.84,19.65,30,19.65,18.82,0,18.82-10a9.27,9.27,0,0,0-4.35-8.16q-4.35-2.92-15.55-5.18-42.77-8.2-54.92-21.43A44.5,44.5,0,0,1,8.22,291q0-23,17.46-38.25T75.9,237.53q49.68,0,65.64,39.92L100.2,290q-6.44-16.32-26.09-16.32-16.32,0-16.32,10.13a8,8,0,0,0,3.69,7q3.69,2.5,14.3,4.76,29.19,6.18,41.46,10.93a44.65,44.65,0,0,1,20.49,16.25q8.22,11.5,8.21,27.13,0,24.67-20,40T73.39,405.16Q13.93,405.16,0,355.59Z" style="fill:#eef"/><path d="M211.27,240V402.66H161.34V240Z" style="fill:#eef"/><path d="M219.16,355.61l46.35-8.34q5.83,19.65,30,19.66,18.83,0,18.82-10a9.31,9.31,0,0,0-4.34-8.16q-4.35-2.92-15.55-5.18-42.78-8.2-54.93-21.43a44.46,44.46,0,0,1-12.14-31.1q0-23,17.45-38.25t50.22-15.26q49.68,0,65.64,39.92L319.36,290q-6.44-16.34-26.09-16.33-16.32,0-16.32,10.13a8,8,0,0,0,3.69,7q3.69,2.51,14.3,4.76,29.19,6.17,41.47,10.92a44.69,44.69,0,0,1,20.48,16.25q8.22,11.5,8.22,27.13,0,24.67-20,40t-52.54,15.31Q233.09,405.17,219.16,355.61Z" style="fill:#eef"/><path d="M470,340.61l45.63,2.74q-3.21,29.91-22.1,45.87t-46.41,16q-33.12,0-53.49-21.92t-20.37-60.53q0-38.24,19.31-61.71t53.85-23.47q32.28,0,49.62,17.88t19.59,47.41L469,305.34q0-16.32-6.25-23.59t-14.72-7.27q-23.58,0-23.59,47.42,0,26.57,6.14,36.1t17.21,9.53Q467.61,367.53,470,340.61Z" style="fill:#eef"/><path d="M600.47,405.19q-34.32,0-55.94-22.76t-21.62-60.88q0-36.46,20.68-60.22T601,237.56q34,0,55.34,22.4t21.39,59.81q0,38.73-21.57,62.07T600.47,405.19Zm-.24-36.93q12.63,0,18.17-11t5.54-40.33q0-42.42-22.75-42.42-24.54,0-24.54,48.37Q576.64,368.25,600.23,368.26Z" style="fill:#eef"/><path d="M745,240.07V402.69H695.1V240.07Z" style="fill:#eef"/><path d="M908.75,402.7H868.12l-44.53-71.85a273.52,273.52,0,0,1-17.3-33.59Q810.22,313,810.22,324V402.7H769.71V240.07H816.9l37.89,59.57a231.19,231.19,0,0,1,17.15,31.22,236.82,236.82,0,0,1-3.81-42.65V240.08h40.63Z" style="fill:#eef"/><path d="M741.09,460.85V480c0,16.69-11.52,32.12-30.21,40.46l-220.8,98.62a76,76,0,0,1-60.41,0L208.86,520.45c-18.69-8.34-30.2-23.77-30.2-40.47V460.84" style="fill:none;stroke:#4949fc;stroke-linecap:round;stroke-miterlimit:10;stroke-width:40px"/><path d="M178.66,181.7V165.35c0-16.7,11.51-32.13,30.21-40.48l220.8-98.61a76,76,0,0,1,60.41,0l220.81,98.62c18.68,8.34,30.2,23.77,30.2,40.46v16.37" style="fill:none;stroke:#4949fc;stroke-linecap:round;stroke-miterlimit:10;stroke-width:40px"/><line x1="304.07" y1="181.71" x2="210.57" y2="139.95" style="fill:none;stroke:#4949fc;stroke-linecap:round;stroke-miterlimit:10;stroke-width:40px"/><line x1="712.59" y1="139.95" x2="619.1" y2="181.71" style="fill:none;stroke:#4949fc;stroke-linecap:round;stroke-miterlimit:10;stroke-width:40px"/><line x1="454.31" y1="473.84" x2="454.21" y2="625.23" style="fill:none;stroke:#4949fc;stroke-linecap:round;stroke-miterlimit:10;stroke-width:40px"/></g></svg>